<?xml version="1.0" standalone="no"?>
<!DOCTYPE svg PUBLIC "-//W3C//DTD SVG 20010904//EN"
 "http://www.w3.org/TR/2001/REC-SVG-20010904/DTD/svg10.dtd">
<svg version="1.0" xmlns="http://www.w3.org/2000/svg"
 width="204.000000pt" height="204.000000pt" viewBox="0 0 204.000000 204.000000"
 preserveAspectRatio="xMidYMid meet">
<metadata>
Created by potrace 1.14, written by Peter Selinger 2001-2017
</metadata>
<g transform="translate(0.000000,204.000000) scale(0.100000,-0.100000)"
fill="#000000" stroke="none">
<path d="M768 1997 c-10 -6 -9 -7 3 -4 9 3 22 0 28 -6 8 -8 11 -8 11 0 0 6 8
10 18 9 35 -5 16 -20 -28 -22 -113 -4 -150 -8 -150 -16 0 -5 -5 -6 -12 -2 -7
4 -8 3 -4 -4 5 -8 13 -9 25 -3 13 7 18 6 18 -5 0 -8 -5 -14 -11 -13 -6 1 -25
1 -43 0 -26 -1 -31 -4 -26 -18 5 -15 3 -14 -10 2 -13 17 -18 18 -29 6 -7 -8
-8 -11 -2 -8 7 4 14 1 17 -7 4 -10 -2 -13 -24 -12 -20 2 -29 -2 -29 -13 0 -9
-3 -12 -8 -6 -11 16 -29 15 -29 0 0 -8 5 -11 10 -8 6 3 7 1 3 -5 -4 -7 -18
-12 -32 -12 -17 0 -24 -5 -24 -20 0 -15 -7 -20 -25 -20 -17 0 -23 -4 -19 -14
7 -18 -12 -30 -22 -15 -4 8 -3 9 4 5 8 -5 10 -1 5 9 -4 13 -8 14 -14 4 -4 -7
-5 -17 -3 -21 4 -7 -16 -12 -37 -10 -3 1 -6 -6 -7 -14 -1 -7 -3 -21 -4 -29 -2
-17 -18 -21 -18 -5 0 6 -5 10 -11 10 -6 0 -8 -9 -4 -20 4 -11 2 -20 -4 -20 -6
0 -8 -8 -5 -17 5 -17 5 -17 -6 0 -16 25 -33 22 -19 -4 7 -13 7 -19 1 -15 -6 3
-14 1 -17 -5 -4 -5 -12 -8 -19 -6 -7 3 -13 -5 -14 -19 -4 -49 -6 -54 -24 -54
-17 0 -21 -10 -21 -61 0 -9 -6 -16 -13 -16 -10 0 -11 4 -3 13 7 8 7 14 -1 19
-5 3 -10 5 -11 3 0 -2 -3 -19 -6 -38 -2 -19 -9 -37 -14 -38 -5 -2 -7 -8 -3
-13 3 -5 1 -9 -5 -9 -5 0 -11 6 -13 12 -4 11 -7 -16 -11 -89 -1 -15 -7 -23
-19 -23 -15 0 -18 -9 -19 -52 -1 -29 -1 -56 0 -60 1 -7 -13 -12 -30 -10 -3 1
-6 -5 -6 -13 0 -10 5 -11 18 -5 13 8 17 6 14 -8 -1 -9 -9 -16 -17 -14 -20 3
-18 -39 2 -56 13 -10 13 -11 -3 -6 -12 4 -17 1 -17 -11 0 -10 4 -13 13 -9 9 6
9 5 0 -7 -15 -19 -15 -139 0 -158 7 -8 7 -12 1 -8 -7 4 -10 -8 -10 -33 0 -22
4 -40 9 -40 5 0 4 -7 -3 -15 -9 -10 -9 -15 -1 -15 10 0 15 13 12 33 0 4 3 7 8
7 6 0 9 -12 9 -27 -1 -16 -1 -52 0 -80 2 -44 5 -53 20 -53 12 0 18 -8 19 -22
2 -55 7 -96 13 -93 18 11 33 -18 39 -77 2 -15 18 -8 18 7 0 8 -5 11 -10 8 -6
-4 -7 -1 -3 6 14 21 22 5 25 -44 1 -18 7 -25 21 -25 14 0 20 -7 21 -25 2 -44
4 -48 17 -53 15 -5 16 10 2 24 -7 7 -6 11 3 11 14 0 15 -5 18 -52 1 -20 4 -23
15 -14 8 6 11 16 7 22 -3 6 -1 7 5 3 6 -4 9 -13 6 -20 -3 -8 -1 -17 5 -20 6
-4 8 -13 5 -21 -4 -10 0 -13 15 -10 19 4 27 -9 22 -38 -1 -5 9 -7 21 -5 18 2
23 -2 22 -19 -2 -27 0 -28 17 -6 12 14 12 16 0 8 -10 -5 -12 -4 -7 4 10 16 26
4 19 -14 -3 -8 0 -15 7 -15 6 0 8 -6 4 -12 -6 -10 -4 -10 7 0 18 17 30 15 27
-5 -2 -12 6 -19 26 -23 17 -3 29 -8 28 -12 -5 -18 -1 -29 8 -23 5 3 7 13 4 23
-5 14 -4 14 4 2 6 -8 8 -18 6 -22 -3 -4 9 -8 25 -8 17 0 31 -5 31 -11 0 -5 -4
-7 -10 -4 -6 3 -7 -1 -4 -9 3 -9 10 -16 16 -16 5 0 6 5 3 10 -3 6 -1 10 4 10
6 0 11 -4 11 -10 0 -5 14 -10 31 -10 21 0 28 -4 23 -12 -6 -10 -4 -10 8 0 13
10 17 10 22 -3 4 -11 2 -14 -6 -9 -6 4 -8 3 -4 -4 3 -6 25 -10 48 -10 27 0 46
-5 53 -16 7 -9 16 -16 20 -16 4 0 2 7 -5 15 -7 8 -8 15 -2 15 5 0 15 -6 21
-14 9 -10 50 -14 179 -15 113 -1 162 2 152 9 -8 5 -10 10 -4 10 6 0 14 -3 18
-7 11 -12 56 -11 56 1 0 6 25 13 58 15 31 1 66 4 76 4 11 1 21 9 23 17 4 13 3
13 -6 0 -8 -12 -13 -12 -23 -2 -6 6 -9 13 -5 13 4 1 12 3 17 4 6 1 31 3 57 4
25 0 43 4 40 8 -13 13 16 33 49 33 19 0 33 3 33 8 -4 23 4 32 25 32 19 0 24 5
21 18 -2 11 3 19 11 19 8 0 13 -6 10 -13 -3 -8 -1 -16 5 -19 5 -4 9 -3 8 2 -4
21 2 33 15 33 8 0 18 9 21 20 3 11 15 20 26 20 12 0 19 7 19 20 0 13 7 20 20
20 13 0 20 7 20 20 0 13 7 20 20 20 14 0 20 7 20 24 0 19 4 23 20 19 16 -4 20
0 21 23 1 16 1 36 0 44 -2 13 -1 13 8 0 5 -8 7 -18 5 -22 -3 -4 0 -8 6 -8 7 0
9 8 5 21 -5 15 -4 19 4 15 7 -5 11 2 11 18 0 19 5 26 20 26 19 0 26 24 21 68
-1 6 7 12 19 12 19 0 25 21 23 87 0 6 6 9 14 6 8 -3 12 -12 9 -20 -3 -8 -1
-11 4 -8 13 8 13 35 0 35 -5 0 -10 5 -10 11 0 5 4 8 9 5 5 -3 9 4 10 17 1 29
8 109 10 122 1 6 5 3 11 -5 6 -9 5 -19 -2 -28 -8 -10 -8 -17 3 -27 13 -13 14
-10 14 23 0 20 -4 43 -9 51 -6 9 -5 12 1 8 11 -7 18 109 13 228 -1 33 -2 86
-3 117 0 48 -2 54 -13 40 -7 -10 -9 -21 -4 -27 5 -6 4 -17 -2 -25 -8 -13 -9
-12 -5 2 3 9 3 19 -1 22 -10 10 -11 37 -1 30 5 -3 9 0 9 5 0 6 -4 11 -10 11
-5 0 -10 7 -10 16 0 14 2 15 18 3 16 -13 16 -13 0 6 -9 12 -18 37 -20 57 -1
20 -6 34 -10 32 -4 -3 -8 3 -9 13 0 16 -1 16 -9 -2 -7 -16 -9 -13 -9 18 -1 20
-1 40 -2 45 0 4 -9 10 -20 14 -17 7 -24 30 -20 66 1 6 -7 12 -19 12 -12 0 -20
7 -21 18 -1 29 -7 54 -15 60 -4 4 -4 -1 -1 -10 3 -10 2 -20 -3 -23 -6 -4 -11
-1 -11 4 -3 26 -4 30 -11 36 -4 4 -4 13 -1 21 3 8 0 14 -6 14 -6 0 -11 -6 -11
-12 -1 -7 -7 -2 -14 12 -8 14 -12 28 -10 32 3 5 -4 8 -15 8 -14 0 -21 6 -21
19 0 13 -8 21 -22 23 -16 2 -22 9 -20 21 2 12 -4 17 -23 17 -22 0 -25 3 -20
20 4 11 3 20 -2 19 -28 -5 -42 3 -38 21 2 12 0 18 -6 15 -5 -4 -7 -10 -4 -15
3 -4 -2 -10 -9 -13 -10 -4 -13 0 -11 14 3 14 -2 19 -18 19 -24 0 -62 20 -39
20 7 0 10 5 7 10 -3 6 -22 10 -41 10 -26 0 -34 4 -34 18 0 17 -19 22 -96 25
-22 1 -30 24 -8 24 7 0 10 -5 7 -10 -3 -6 -1 -7 6 -3 29 18 -10 26 -141 29
-21 1 -40 7 -43 14 -3 10 0 11 14 3 13 -7 22 -6 29 3 8 9 1 12 -30 14 -30 1
-38 -2 -34 -12 3 -8 1 -17 -5 -20 -5 -4 -9 -3 -8 2 6 33 0 34 -176 32 -96 -1
-180 -7 -187 -12z m-414 -252 c-4 -8 -11 -15 -16 -15 -6 0 -5 6 2 15 7 8 14
15 16 15 2 0 1 -7 -2 -15z m-117 -120 c0 -17 -13 -20 -21 -6 -4 5 0 12 6 14 7
3 13 6 14 6 0 1 1 -6 1 -14z m1708 -285 c3 -5 1 -10 -4 -10 -6 0 -11 5 -11 10
0 6 2 10 4 10 3 0 8 -4 11 -10z m-1905 -194 c0 -3 -4 -8 -10 -11 -5 -3 -10 -1
-10 4 0 6 5 11 10 11 6 0 10 -2 10 -4z m-6 -184 c3 -5 -1 -9 -9 -9 -8 0 -12 4
-9 9 3 4 7 8 9 8 2 0 6 -4 9 -8z m-4 -87 c0 -8 -4 -15 -10 -15 -5 0 -7 7 -4
15 4 8 8 15 10 15 2 0 4 -7 4 -15z m84 -281 c5 -14 4 -15 -9 -4 -17 14 -19 20
-6 20 5 0 12 -7 15 -16z m1670 -200 c3 -8 2 -12 -4 -9 -6 3 -10 10 -10 16 0
14 7 11 14 -7z m-1430 -116 c-3 -4 -9 -8 -15 -8 -5 0 -9 4 -9 8 0 5 7 9 15 9
8 0 12 -4 9 -9z m1271 -38 c-3 -5 -12 -10 -18 -10 -7 0 -6 4 3 10 19 12 23 12
15 0z m-755 -200 c0 -5 -5 -10 -11 -10 -5 0 -7 5 -4 10 3 6 8 10 11 10 2 0 4
-4 4 -10z m320 4 c0 -8 -19 -13 -24 -6 -3 5 1 9 9 9 8 0 15 -2 15 -3z"/>
<path d="M1227 1997 c-3 -8 1 -14 8 -14 7 0 11 6 8 14 -3 7 -6 13 -8 13 -2 0
-5 -6 -8 -13z"/>
<path d="M410 1841 c0 -6 4 -13 10 -16 6 -3 7 1 4 9 -7 18 -14 21 -14 7z"/>
<path d="M51 1354 c0 -11 3 -14 6 -6 3 7 2 16 -1 19 -3 4 -6 -2 -5 -13z"/>
<path d="M45 660 c3 -5 8 -10 11 -10 2 0 4 5 4 10 0 6 -5 10 -11 10 -5 0 -7
-4 -4 -10z"/>
<path d="M1215 30 c-3 -5 -1 -10 4 -10 6 0 11 5 11 10 0 6 -2 10 -4 10 -3 0
-8 -4 -11 -10z"/>
</g>
</svg>
